HIERARCHY
ROOT root
{
	OFFSET 0.000000 0.000000 0.000000
	CHANNELS 6 Xposition Yposition Zposition Zrotation Yrotation Xrotation
	JOINT lhip
	{
		OFFSET 0.058581 -0.082280 -0.017664
		CHANNELS 3 Zrotation Yrotation Xrotation
		JOINT lknee
		{
			OFFSET 0.043451 -0.386469 0.008037
			CHANNELS 3 Zrotation Yrotation Xrotation
			JOINT lankle
			{
				OFFSET -0.014790 -0.426874 -0.037428
				CHANNELS 3 Zrotation Yrotation Xrotation
				JOINT ltoe
				{
					OFFSET 0.041054 -0.060286 0.122042
					CHANNELS 3 Zrotation Yrotation Xrotation
					End Site
					{
						OFFSET 0.000000 0.000000 0.000000
					}
				}
			}
		}
	}
	JOINT rhip
	{
		OFFSET -0.060310 -0.090513 -0.013543
		CHANNELS 3 Zrotation Yrotation Xrotation
		JOINT rknee
		{
			OFFSET -0.043257 -0.383688 -0.004843
			CHANNELS 3 Zrotation Yrotation Xrotation
			JOINT rankle
			{
				OFFSET 0.019056 -0.420046 -0.034562
				CHANNELS 3 Zrotation Yrotation Xrotation
				JOINT rtoe
				{
					OFFSET -0.034840 -0.062106 0.130323
					CHANNELS 3 Zrotation Yrotation Xrotation
					End Site
					{
						OFFSET 0.000000 0.000000 0.000000
					}
				}
			}
		}
	}
	JOINT lowerback
	{
		OFFSET 0.004439 0.124404 -0.038385
		CHANNELS 3 Zrotation Yrotation Xrotation
		JOINT upperback
		{
			OFFSET 0.004488 0.137956 0.026820
			CHANNELS 3 Zrotation Yrotation Xrotation
			JOINT chest
			{
				OFFSET -0.002265 0.056032 0.002855
				CHANNELS 3 Zrotation Yrotation Xrotation
				JOINT lowerneck
				{
					OFFSET -0.013390 0.211636 -0.033468
					CHANNELS 3 Zrotation Yrotation Xrotation
					JOINT upperneck
					{
						OFFSET 0.010113 0.088937 0.050410
						CHANNELS 3 Zrotation Yrotation Xrotation
						End Site
						{
							OFFSET 0.000000 0.000000 0.000000
						}
					}
				}
				JOINT lclavicle
				{
					OFFSET 0.071702 0.114000 -0.018898
					CHANNELS 3 Zrotation Yrotation Xrotation
					JOINT lshoulder
					{
						OFFSET 0.122921 0.045205 -0.019046
						CHANNELS 3 Zrotation Yrotation Xrotation
						JOINT lelbow
						{
							OFFSET 0.255332 -0.015649 -0.022946
							CHANNELS 3 Zrotation Yrotation Xrotation
							JOINT lwrist
							{
								OFFSET 0.265709 0.012698 -0.007375
								CHANNELS 3 Zrotation Yrotation Xrotation
								End Site
								{
									OFFSET 0.000000 0.000000 0.000000
								}
							}
						}
					}
				}
				JOINT rclavicle
				{
					OFFSET -0.082954 0.112472 -0.023707
					CHANNELS 3 Zrotation Yrotation Xrotation
					JOINT rshoulder
					{
						OFFSET -0.113228 0.046853 -0.008472
						CHANNELS 3 Zrotation Yrotation Xrotation
						JOINT relbow
						{
							OFFSET -0.260127 -0.014369 -0.031269
							CHANNELS 3 Zrotation Yrotation Xrotation
							JOINT rwrist
							{
								OFFSET -0.269108 0.006794 -0.006027
								CHANNELS 3 Zrotation Yrotation Xrotation
								End Site
								{
									OFFSET 0.000000 0.000000 0.000000
								}
							}
						}
					}
				}
			}
		}
	}
}
MOTION
Frames: 14
Frame Time: 0.033333
0.330356 0.233356 1.338378 53.809580 4.788851 91.992644 26.411720 23.110770 -51.372727 -7.148379 16.704619 19.231511 -6.212688 14.164926 23.310524 0.000000 -0.000000 0.000000 -37.523737 -11.283665 29.630985 3.807627 16.785714 37.885266 9.511612 -8.014732 34.494167 0.000000 -0.000000 0.000000 0.109915 19.132264 2.539038 2.152547 6.759108 -7.903095 3.238068 11.326586 -0.410754 -6.170640 -10.014932 10.973742 7.430803 -0.102283 1.425975 -1.238938 7.019427 -6.808024 -4.488445 11.842892 -13.346424 6.669441 -27.727489 -4.964391 9.529654 -1.746218 -1.064631 5.506378 12.694136 4.943212 -5.698821 9.660217 -18.245407 7.108614 11.697408 3.058381 -4.543289 -3.192486 30.404627 
0.403690 0.229901 1.330783 54.806710 6.676726 90.360780 24.823102 21.973393 -47.324994 -6.425198 13.824110 16.472461 -6.662192 14.381790 26.011794 0.000000 -0.000000 0.000000 -38.033895 -11.357778 30.787702 2.912226 16.883096 44.344428 8.180866 -9.370329 35.141914 0.000000 -0.000000 0.000000 3.276741 17.574999 3.159789 2.687741 7.247094 -7.963644 3.315861 11.409877 0.251994 -6.525016 -10.533269 12.198069 6.435927 0.436929 2.262977 0.177270 10.607129 -7.193847 -7.684951 14.151440 -15.096635 7.158225 -25.720849 -6.297121 7.111898 -0.465069 -5.074343 3.813056 9.651065 4.097698 -2.941064 7.531702 -18.564518 5.767084 8.682479 -0.458480 -2.583572 -4.969356 29.465865 
0.527480 0.225494 1.306808 57.073212 8.800201 88.507077 20.769639 19.641801 -39.493644 -5.506167 10.125134 11.600295 -6.286988 15.576649 28.342624 0.000000 -0.000000 0.000000 -38.025488 -11.737323 31.423742 2.403030 17.650258 56.716574 5.728054 -10.736810 36.799307 0.000000 -0.000000 0.000000 7.357355 15.540684 2.113703 3.518268 7.718318 -8.352787 3.349980 10.938049 2.243297 -7.221094 -11.353138 16.303272 5.398300 1.109872 2.489144 1.634134 14.946745 -7.573500 -11.283797 16.421908 -17.809992 8.432499 -21.133776 -7.409885 3.414288 1.717471 -7.151371 1.539852 4.027328 2.741492 1.438761 3.865029 -17.966527 4.311354 5.827441 -4.499128 -7.808213 -11.219831 26.156230 
0.628762 0.222773 1.276763 59.437051 9.728065 87.732114 16.942419 16.659351 -32.329620 -3.692419 6.031470 8.462820 -4.485906 17.218431 29.510728 0.000000 -0.000000 0.000000 -35.774119 -11.082452 31.354040 2.339863 16.387196 66.268749 3.995172 -12.780363 37.449426 0.000000 -0.000000 0.000000 9.520995 14.084385 1.078352 4.031342 8.531911 -10.217279 3.267074 9.667685 3.748345 -7.850011 -12.327090 19.555159 4.034659 1.554901 2.953965 2.932228 18.147624 -6.885659 -12.922718 17.072477 -19.197807 6.806458 -18.344493 -6.387773 -0.550698 2.972377 -9.078533 -0.212561 -0.873040 2.664815 4.810783 0.481485 -15.288591 5.467635 8.442563 -2.876368 -11.513177 -9.931558 23.399262 
0.730786 0.218983 1.235327 61.795738 9.817318 87.265799 13.398472 12.617401 -24.373758 -2.764294 1.121174 6.626490 -2.729100 18.440853 29.268305 0.000000 -0.000000 0.000000 -32.720419 -9.710281 30.221005 1.482440 12.496268 75.484491 -0.532116 -16.804297 35.264364 0.000000 -0.000000 0.000000 10.481040 12.151116 -1.073310 4.401123 8.621485 -10.056102 2.766436 8.666534 4.480492 -8.357287 -12.897538 23.102365 3.214917 2.403703 1.104145 3.661440 20.623232 -6.789635 -13.081469 19.088506 -18.495632 4.702337 -17.697198 -1.736804 -6.214090 4.259435 -5.271209 -1.693538 -3.716695 2.716644 7.845237 -2.280566 -12.135298 6.321942 7.613352 1.912882 -10.664601 -11.048990 24.720462 
0.830389 0.214651 1.181489 63.248377 9.647422 87.387965 10.570735 8.114796 -17.041178 -3.487957 -2.519511 7.690941 -0.960501 21.202768 29.007216 0.000000 -0.000000 0.000000 -28.819867 -8.638427 26.828138 0.031549 9.392737 85.560793 -5.667953 -21.389773 28.348095 0.000000 -0.000000 0.000000 11.447642 10.673099 -2.905929 3.270662 8.583322 -8.747050 1.728086 8.528127 4.279212 -8.738993 -13.377691 26.197606 4.890032 4.265001 -2.972272 5.477308 19.988128 -7.405950 -13.779863 23.416664 -16.121136 0.985365 -17.588651 2.667680 -5.755900 5.492241 -0.957521 -3.918163 -3.222733 3.214005 14.074180 -9.348161 -10.381873 7.878610 8.658388 3.738841 -14.009816 -13.114064 27.178443 
0.925644 0.208905 1.114327 64.995585 9.029260 87.854932 7.692822 3.405080 -11.110485 -6.410792 -1.225705 11.291458 -1.145699 22.333002 27.571168 0.000000 -0.000000 0.000000 -23.663043 -7.560707 22.216281 -1.238732 6.627396 95.789342 -9.204179 -24.989629 17.031617 0.000000 -0.000000 0.000000 10.861226 9.427047 -3.902603 2.288367 8.485757 -7.145030 1.153397 8.164383 3.545164 -7.377137 -13.910880 24.755935 4.983806 4.473985 -4.874831 5.445256 19.377778 -6.782390 -17.202601 25.573556 -13.466630 -1.126230 -18.625520 7.707969 -12.073185 4.718969 -1.677344 -4.421897 -4.331479 2.323356 18.179483 -14.961127 -7.624008 9.260966 9.103557 9.102680 -7.890930 -13.015236 24.532953 
1.014680 0.205040 1.036360 68.050670 6.606246 89.265440 1.955302 1.480078 -8.989687 -11.151689 -3.597974 20.040893 5.482966 24.495906 -2.013371 0.000000 -0.000000 0.000000 -18.809470 -6.562159 14.273561 0.514695 4.141330 107.066102 -7.361133 -29.269677 0.878405 0.000000 -0.000000 0.000000 8.401205 7.803944 -3.372036 0.995667 7.469875 -9.341901 -0.125453 6.557278 5.610407 -5.166253 -13.505707 23.409794 4.842727 5.909664 -8.185717 3.479089 19.471316 -5.564670 -21.201138 26.057779 -13.517546 -2.492030 -19.315636 7.799254 -6.808301 4.698735 1.016081 -6.629640 -6.862813 1.038899 26.227401 -16.182719 -4.963048 8.273568 8.847136 9.436606 -11.214363 -13.791722 23.861176 
1.093194 0.202690 0.960756 73.217416 2.921726 91.436572 -4.379043 -0.647058 -8.436676 -13.017476 -6.684511 26.403748 12.021443 28.950823 -20.773181 0.000000 -0.000000 0.000000 -13.349260 -3.641413 1.455593 0.695851 0.557199 115.927574 -4.577539 -30.189901 -10.516582 0.000000 -0.000000 0.000000 3.616194 3.711353 -2.427871 -0.066552 6.850590 -10.021430 -0.725997 5.277113 7.972903 0.604837 -12.351631 13.668445 3.220066 3.782109 -6.979373 -1.886653 21.742924 -4.678854 -28.526159 18.820474 -9.258664 0.024347 -21.524740 7.751210 -6.461554 3.747254 -6.077758 -1.202417 -12.725370 -2.086455 29.224066 -15.801404 1.713302 6.383814 11.863917 12.932440 -4.645095 -14.054129 18.451988 
1.172553 0.199154 0.907848 77.884484 -1.513272 88.510114 -12.238091 -2.421202 -2.115746 -12.227409 -9.060844 31.338689 14.213778 34.481933 -29.740666 0.000000 -0.000000 0.000000 -10.299456 -0.572929 -9.830108 1.882842 0.591977 116.759166 -1.902746 -29.633317 -17.547351 0.000000 -0.000000 0.000000 -0.289643 0.283117 6.115173 -1.907245 4.459777 -11.088295 -1.315906 2.944904 8.314699 2.328983 -10.656135 6.755529 2.808683 4.038282 -8.172270 -9.082691 19.903917 -3.806945 -34.902998 15.185662 -6.767273 1.306946 -26.736312 5.464098 -3.325143 4.721982 -10.165655 4.024124 -13.619340 -1.859429 36.717853 -15.899505 3.736334 2.114049 17.611969 7.958824 -6.279492 -16.354727 16.076475 
1.255687 0.190963 0.882842 80.249475 -3.303326 84.720835 -15.129546 -5.020155 7.672865 -14.171551 -8.459901 32.293635 9.894069 35.457772 -35.521376 0.000000 -0.000000 0.000000 -5.197076 6.349036 -20.053595 3.086652 1.352753 108.065579 -2.055806 -27.097117 -20.694578 0.000000 -0.000000 0.000000 -2.097272 -1.480232 11.589518 -2.112785 3.472238 -10.522858 -1.797289 0.870058 10.363214 3.494064 -6.410644 3.978981 2.687198 3.165478 -9.027717 -14.804196 15.647082 -4.094612 -42.764915 5.752396 -1.241942 5.884485 -27.275291 2.896257 0.739871 4.175150 -11.318364 9.875044 -13.033480 -1.814089 44.509518 -14.152078 8.000734 -2.933636 21.819080 8.118990 -4.679717 -17.320338 8.990945 
1.342857 0.180216 0.871227 83.916599 -2.000070 83.260658 -11.333339 -0.339995 16.997442 -15.284437 -13.341519 31.978081 6.008274 30.279166 -38.119586 0.000000 -0.000000 0.000000 -2.225986 12.646421 -30.655874 -0.866465 0.669432 93.468107 -1.155022 -28.616505 -23.846314 0.000000 -0.000000 0.000000 -2.362693 -6.372737 14.169101 -1.581010 3.337153 -9.931655 -1.479414 -1.145683 8.591276 3.372087 -4.520774 3.040701 2.277033 3.474679 -5.594838 -18.412749 9.888332 -1.662784 -46.733840 -0.315352 4.220173 5.157328 -33.453526 7.594106 2.438400 1.688740 -13.144064 12.761946 -10.198793 0.576968 51.191985 -12.390535 11.222545 -4.438475 24.808678 10.717885 -4.201406 -16.655547 6.662398 
1.438471 0.170697 0.865472 90.989229 0.422033 84.962866 -3.255036 3.232124 25.525797 -13.168598 -22.881481 27.925153 1.652629 21.130698 -36.189150 0.000000 -0.000000 0.000000 -4.745941 11.317257 -41.661970 -7.039380 -5.763330 77.118083 0.390327 -27.013567 -24.421333 0.000000 -0.000000 0.000000 -1.210834 -13.096336 12.022759 -0.358450 1.318742 -8.243190 -0.817578 -2.561457 6.220731 3.173889 -1.491979 2.926644 1.711779 2.678649 -3.452459 -20.206819 7.373082 -1.480064 -50.335211 -7.889343 9.514731 0.637358 -40.572441 16.599747 1.625197 -1.566115 -15.890827 15.552406 -10.344338 1.535769 54.263793 -10.165789 13.122771 -4.971264 30.533709 15.334323 -3.949010 -14.733225 5.448185 
1.542788 0.163052 0.865851 99.409845 2.713847 87.739607 5.986346 2.465570 31.151207 -11.243270 -29.628259 23.530993 -4.235154 13.396954 -27.137018 0.000000 -0.000000 0.000000 -8.975364 4.737114 -48.356601 -4.978357 -15.927740 61.441540 1.071213 -21.282682 -18.675210 0.000000 -0.000000 0.000000 1.563460 -18.530190 8.112475 1.291453 -1.723509 -6.951237 -0.225134 -4.870338 3.757500 1.749728 0.043149 1.509343 0.881779 2.181314 -0.983861 -21.755297 4.718548 0.128811 -55.143538 -13.859614 13.925201 -2.154516 -49.298053 22.109807 2.272825 -3.123435 -18.898514 17.602599 -10.053445 3.357472 54.885193 -7.156627 12.722270 -3.881456 35.074603 19.622961 -2.107113 -14.546137 5.139361 
